<?xml version="1.0" encoding="UTF-8"?>
<svg version="1.1" xmlns="http://www.w3.org/2000/svg" width="331" height="74">
<path d="M0 0 C109.23 0 218.46 0 331 0 C331 24.42 331 48.84 331 74 C221.77 74 112.54 74 0 74 C0 49.58 0 25.16 0 0 Z " fill="#93C4FC" transform="translate(0,0)"/>
<path d="M0 0 C60.06 0 120.12 0 182 0 C182 21.12 182 42.24 182 64 C121.94 64 61.88 64 0 64 C0 42.88 0 21.76 0 0 Z " fill="#FDFDFE" transform="translate(5,5)"/>
<path d="M0 0 C62.04 0 124.08 0 188 0 C187.67 1.65 187.34 3.3 187 5 C126.94 5 66.88 5 5 5 C5 26.12 5 47.24 5 69 C65.06 69 125.12 69 187 69 C187.66 70.65 188.32 72.3 189 74 C126.63 74 64.26 74 0 74 C0 49.58 0 25.16 0 0 Z " fill="#3B82F6" transform="translate(0,0)"/>
<path d="M0 0 C3.63 0 7.26 0 11 0 C11.20496094 1.07121094 11.40992188 2.14242187 11.62109375 3.24609375 C11.89302709 4.64326851 12.16517352 6.04040181 12.4375 7.4375 C12.57220703 8.14455078 12.70691406 8.85160156 12.84570312 9.58007812 C13.28406898 13.08429264 13.28406898 13.08429264 15 16 C15.27714844 14.92878906 15.55429687 13.85757813 15.83984375 12.75390625 C16.20554924 11.35672373 16.57144446 9.95959085 16.9375 8.5625 C17.11990234 7.85544922 17.30230469 7.14839844 17.49023438 6.41992188 C18.88671875 1.11328125 18.88671875 1.11328125 20 0 C23.33618231 -0.14257189 26.65975606 -0.04228157 30 0 C31.32 4.95 32.64 9.9 34 15 C35.32 10.05 36.64 5.1 38 0 C40.97 0 43.94 0 47 0 C46.38100787 6.56905395 44.85754296 12.61572053 43 18.9375 C42.72671875 19.89462891 42.4534375 20.85175781 42.171875 21.83789062 C40.13789336 28.86210664 40.13789336 28.86210664 39 30 C37.14712498 30.07226502 35.29166122 30.0838122 33.4375 30.0625 C32.42558594 30.05347656 31.41367187 30.04445313 30.37109375 30.03515625 C29.19740234 30.01775391 29.19740234 30.01775391 28 30 C27.49622232 27.73000175 26.99709981 25.45896997 26.5 23.1875 C26.08234375 21.29064453 26.08234375 21.29064453 25.65625 19.35546875 C25 16 25 16 25 13 C24.34 13 23.68 13 23 13 C22.896875 14.134375 22.79375 15.26875 22.6875 16.4375 C22.10525314 21.22391171 20.62753418 25.47120924 19 30 C15.37 30 11.74 30 8 30 C6.85110408 25.93835976 5.7064204 21.87554409 4.5625 17.8125 C4.23701172 16.66201172 3.91152344 15.51152344 3.57617188 14.32617188 C3.26357422 13.21435547 2.95097656 12.10253906 2.62890625 10.95703125 C2.34088135 9.93585205 2.05285645 8.91467285 1.75610352 7.86254883 C1.07030492 5.26616895 0.5266552 2.633276 0 0 Z " fill="#F8FBFE" transform="translate(278,36)"/>
<path d="M0 0 C6.04906312 4.32075937 6.04906312 4.32075937 7.625 7.875 C8.4882412 13.77506597 8.49179105 18.97472731 6 24.4375 C1.1854696 29.37872857 -1.91661632 31.1375125 -8.875 31.375 C-14.17329088 31.19417096 -17.45274082 30.69668843 -21.375 26.875 C-24.78427346 23.19657337 -25.6739014 20.33089922 -25.875 15.4375 C-25.64866555 10.06388198 -24.73161389 7.09228412 -21.375 2.875 C-14.94569456 -2.24220229 -7.72606205 -2.57535402 0 0 Z " fill="#FAFCFE" transform="translate(268.375,36.125)"/>
<path d="M0 0 C2.97 0 5.94 0 9 0 C9 7.92 9 15.84 9 24 C15.87300352 23.38293596 15.87300352 23.38293596 19.6875 19.1875 C20.27015625 18.46949219 20.8528125 17.75148438 21.453125 17.01171875 C21.96359375 16.34785156 22.4740625 15.68398438 23 15 C24.9375 12.5 24.9375 12.5 27 11 C29.75546652 10.68021665 32.20958065 10.81397204 35 11 C34.46385288 15.07283686 32.35099337 17.04192848 29.5625 19.9375 C26.4531267 23.16665654 24.40225855 25.71659819 23 30 C23.61488281 30.60328125 24.22976562 31.2065625 24.86328125 31.828125 C26.07564453 33.02695313 26.07564453 33.02695313 27.3125 34.25 C28.11300781 35.03890625 28.91351563 35.8278125 29.73828125 36.640625 C35 42.12953368 35 42.12953368 35 46 C28.08086677 46.70984628 28.08086677 46.70984628 25.31152344 44.89111328 C23.73849423 43.34509981 22.29578532 41.74944322 20.875 40.0625 C16.94608819 35.50308643 15.39057022 34.06509504 9 33 C9 37.29 9 41.58 9 46 C6.03 46 3.06 46 0 46 C0 30.82 0 15.64 0 0 Z " fill="#6D70F1" transform="translate(150,18)"/>
<path d="M0 0 C2.64 0 5.28 0 8 0 C8 3.63 8 7.26 8 11 C9.44632813 10.94199219 10.89265625 10.88398438 12.3828125 10.82421875 C14.29684264 10.77730625 16.21090779 10.73180769 18.125 10.6875 C19.07632813 10.64560547 20.02765625 10.60371094 21.0078125 10.56054688 C25.46102161 10.48323422 28.52204564 10.795746 32.65625 12.5625 C35.64715405 15.57964005 35.44365498 18.96602211 35.5859375 23.05078125 C35.57018319 25.80747062 35.47597848 28.55781979 35.375 31.3125 C35.34488282 32.73497003 35.31751005 34.15750098 35.29296875 35.58007812 C35.22706199 39.05465683 35.12364151 42.52694165 35 46 C32.36 46 29.72 46 27 46 C27 37.09 27 28.18 27 19 C20.73 19 14.46 19 8 19 C8 27.91 8 36.82 8 46 C5.36 46 2.72 46 0 46 C0 30.82 0 15.64 0 0 Z " fill="#686BF1" transform="translate(54,18)"/>
<path d="M0 0 C7.05375 -0.061875 7.05375 -0.061875 14.25 -0.125 C15.72758789 -0.14320801 17.20517578 -0.16141602 18.72753906 -0.18017578 C20.4788916 -0.18766846 20.4788916 -0.18766846 22.265625 -0.1953125 C24.05661621 -0.21102295 24.05661621 -0.21102295 25.88378906 -0.22705078 C28.91101102 -0.00648384 30.5264614 0.29403799 33 2 C35.45286296 5.67929445 35.23228878 7.47377907 35.1953125 11.85546875 C35.1924826 12.51710526 35.18965271 13.17874176 35.18673706 13.86042786 C35.17555918 15.96963737 35.15045981 18.07841925 35.125 20.1875 C35.11496707 21.61913448 35.10584176 23.05077564 35.09765625 24.48242188 C35.07562795 27.98841977 35.04111485 31.49416813 35 35 C32.36 35 29.72 35 27 35 C27 26.09 27 17.18 27 8 C20.73 8 14.46 8 8 8 C8 16.91 8 25.82 8 35 C5.36 35 2.72 35 0 35 C0 23.45 0 11.9 0 0 Z " fill="#686BF1" transform="translate(109,29)"/>
<path d="M0 0 C14.19 0 28.38 0 43 0 C43 2.64 43 5.28 43 8 C37.39 8 31.78 8 26 8 C26 19.55 26 31.1 26 43 C23.36 43 20.72 43 18 43 C18 31.45 18 19.9 18 8 C12.06 8 6.12 8 0 8 C0 5.36 0 2.72 0 0 Z " fill="#483DCB" transform="translate(6,21)"/>
<path d="M0 0 C7.92 0 15.84 0 24 0 C24 2.64 24 5.28 24 8 C19.05 8 14.1 8 9 8 C9 11.3 9 14.6 9 18 C13.62 18 18.24 18 23 18 C23 20.64 23 23.28 23 26 C18.38 26 13.76 26 9 26 C9 31.28 9 36.56 9 42 C6.03 42 3.06 42 0 42 C0 28.14 0 14.28 0 0 Z " fill="#1F50D8" transform="translate(198,24)"/>
<path d="M0 0 C3.3 0 6.6 0 10 0 C10 14.52 10 29.04 10 44 C6.7 44 3.4 44 0 44 C0 29.48 0 14.96 0 0 Z " fill="#FBFCFF" transform="translate(228,22)"/>
<path d="M0 0 C2.64 0 5.28 0 8 0 C8 11.55 8 23.1 8 35 C5.36 35 2.72 35 0 35 C0 23.45 0 11.9 0 0 Z " fill="#696CF1" transform="translate(94,29)"/>
<path d="M0 0 C2.8125 1 2.8125 1 3.96484375 2.78125 C5.38713109 6.50410349 5.39499003 10.08077697 4.8125 14 C2.85219628 16.9767575 1.76774971 17.78506882 -1.6875 18.5625 C-4.1875 18 -4.1875 18 -6.5 16.0625 C-8.75524149 11.96965433 -9.16772147 8.5772081 -8.1875 4 C-5.52015864 0.70504891 -4.24029595 0 0 0 Z " fill="#99C8FD" transform="translate(261.1875,42)"/>
<path d="M0 0 C2.64 0 5.28 0 8 0 C8 2.64 8 5.28 8 8 C5.36 8 2.72 8 0 8 C0 5.36 0 2.72 0 0 Z " fill="#6D70F1" transform="translate(94,18)"/>
</svg>
